<?xml version="1.0" encoding="utf-8" ?>
<svg xmlns="http://www.w3.org/2000/svg" xmlns:xlink="http://www.w3.org/1999/xlink" width="144" height="55">
	<clipPath id="cl_9">
		<rect width="144" height="55"/>
	</clipPath>
	<g clip-path="url(#cl_9)">
		<path fill="#242B3D" transform="matrix(0.140625 0 0 0.107422 0 -27.5)" d="M916.682 447.092C918.826 446.867 921.262 446.651 923.365 447.202C925.817 447.845 928.124 449.554 929.363 451.774Q929.596 452.195 929.784 452.638Q929.971 453.082 930.11 453.542Q930.25 454.003 930.339 454.476Q930.429 454.949 930.468 455.429Q930.507 455.908 930.495 456.39Q930.483 456.871 930.42 457.348Q930.357 457.825 930.244 458.293Q930.13 458.761 929.968 459.214C928.688 462.842 926.06 464.698 922.702 466.229C920.217 466.556 917.872 466.81 915.481 465.866Q914.969 465.663 914.481 465.407Q913.993 465.151 913.534 464.845Q913.076 464.539 912.653 464.187Q912.229 463.834 911.845 463.439Q911.461 463.043 911.121 462.61Q910.781 462.176 910.488 461.709Q910.196 461.242 909.954 460.747Q909.712 460.252 909.524 459.734C908.623 457.291 908.682 454.537 909.846 452.19C911.341 449.177 913.605 448.048 916.682 447.092Z"/>
		<path fill="#242B3D" transform="matrix(0.140625 0 0 0.107422 0 -27.5)" d="M640.848 444.7C643.303 444.653 646.004 444.685 648.284 445.695C651.034 446.914 653.253 449.207 654.199 452.08C655.112 454.855 654.865 458.013 653.378 460.545C651.485 463.769 648.671 465.079 645.186 465.943C642.418 466.009 639.591 466.043 637.14 464.581Q636.632 464.28 636.158 463.928Q635.684 463.576 635.249 463.177Q634.814 462.777 634.423 462.335Q634.031 461.893 633.688 461.413Q633.344 460.933 633.052 460.42Q632.76 459.907 632.522 459.367Q632.284 458.826 632.104 458.264Q631.923 457.702 631.802 457.124C631.235 454.443 631.593 451.559 633.127 449.251C635.035 446.379 637.599 445.384 640.848 444.7Z"/>
		<path fill="#242B3D" transform="matrix(0.140625 0 0 0.107422 0 -27.5)" d="M915.909 475.567C918.988 475.48 922.632 475.292 925.515 476.478C926.385 476.836 927.685 477.639 928.006 478.533C929.675 483.197 930.633 550.745 928.582 554.458C927.526 556.37 925.809 556.881 923.883 557.614Q921.335 557.978 918.762 557.886C915.829 557.754 913.729 557.161 911.691 555.029C909.497 549.715 908.903 484.478 910.893 479.347C911.675 477.331 914.126 476.428 915.909 475.567Z"/>
		<path fill="#242B3D" transform="matrix(0.140625 0 0 0.107422 0 -27.5)" d="M643.821 474.182C645.92 474.222 648.673 474.34 650.541 475.383C651.733 476.049 652.425 477.006 652.698 478.339C654.326 486.281 654.428 550.345 651.464 554.614C649.673 557.193 646.113 557.582 643.276 558.122C641.168 558.033 637.558 557.809 635.865 556.471C633.621 554.698 633.673 550.812 633.454 548.137C632.401 535.275 633.002 521.932 633.035 509.024C633.06 499.565 632.378 489.247 633.588 479.89C633.748 478.653 633.884 477.768 634.752 476.805C636.949 474.367 640.8 474.424 643.821 474.182Z"/>
		<path fill="#242B3D" transform="matrix(0.140625 0 0 0.107422 0 -27.5)" d="M554.597 474.634C556.11 474.438 557.866 474.284 559.348 474.751C561.147 475.317 562.794 476.603 563.525 478.369C568.188 489.632 545.796 496.322 541.673 505.061C535.411 518.336 543.654 541.744 538.186 553.43C537.186 555.568 535.561 557.32 533.283 558.074C529.364 559.372 525.23 557.636 521.7 555.982C521.286 555.55 520.956 555.253 520.658 554.702C518.292 550.33 518.916 483.234 520.642 479.703C521.682 477.575 524.529 476.184 526.692 475.623C529.822 474.81 533.968 474.833 536.802 476.585C539.573 478.298 539.957 481.758 540.595 484.673C544.849 480.198 548.883 477.041 554.597 474.634Z"/>
		<path fill="#242B3D" transform="matrix(0.140625 0 0 0.107422 0 -27.5)" d="M586.024 457.668Q588.269 457.537 590.517 457.579C592.914 457.644 595.351 458.56 596.937 460.418C600.461 464.547 599.248 472.398 598.956 477.378C604.211 477.131 612.183 475.582 616.357 479.528Q616.672 479.826 616.956 480.154Q617.24 480.482 617.489 480.837Q617.739 481.192 617.953 481.569Q618.167 481.947 618.342 482.343Q618.517 482.74 618.652 483.152Q618.787 483.565 618.881 483.988Q618.974 484.412 619.025 484.843Q619.077 485.273 619.085 485.707C619.112 487.643 618.434 489.442 617.056 490.818C612.974 494.891 604.715 493.652 599.413 493.541C599.006 503.973 598.463 520.217 599.356 530.233C599.627 533.277 600.293 537.832 602.938 539.797C606.398 542.368 613.553 540.108 617.35 539.188C618.011 539.76 618.674 540.338 619.281 540.967C622.655 544.459 622.555 548.221 622.354 552.742C621.953 553.202 621.548 553.657 621.114 554.086C617.39 557.768 611.514 558.421 606.514 558.416C599.177 558.408 592.002 557.274 586.667 551.732C577.619 542.332 579.153 527.197 579.252 515.25L579.321 493.716C577.158 493.649 575.082 493.62 573.187 492.448C571.577 491.453 570.237 489.879 569.82 488.001C569.322 485.759 570.035 483.547 571.329 481.71C573.391 478.78 575.911 478.072 579.279 477.379C579.037 472.559 577.824 465.505 580.402 461.212C581.759 458.951 583.598 458.357 586.024 457.668Z"/>
		<path fill="#242B3D" transform="matrix(0.140625 0 0 0.107422 0 -27.5)" d="M701.042 445.676Q703.638 445.545 706.236 445.486C711.322 445.393 718.411 446.278 722.085 450.12C723.434 451.532 724.124 453.336 724.067 455.289C723.989 457.974 722.901 461.232 720.768 462.979C716.677 466.329 709.765 463.329 705.095 462.99C702.518 462.803 699.856 463.043 697.886 464.893C695.69 466.955 694.273 471.546 694.39 474.475C694.623 480.328 713.01 476.389 717.242 480.898C718.187 481.905 718.509 482.776 718.473 484.149C718.409 486.615 716.315 490.644 714.462 492.261C710.652 495.584 699.582 494.067 694.71 493.95Q694.512 516.912 694.664 539.875C694.784 544.316 695.738 551.035 692.688 554.711C690.853 556.922 686.919 558.215 684.12 558.374C682.111 558.487 680.081 557.932 678.573 556.558C676.548 554.714 675.537 551.945 675.07 549.31C674.149 544.116 674.523 538.485 674.566 533.233C674.67 520.32 675.638 507.023 674.508 494.173C672.484 493.706 669.82 493.376 668.017 492.323C666.065 491.182 664.376 489.069 663.886 486.847C663.486 485.032 663.965 483.302 665.018 481.804C667.536 478.222 670.979 477.64 674.978 476.974C674.868 469.796 675.893 462.754 680.198 456.775C685.322 449.661 692.782 446.994 701.042 445.676Z"/>
		<path fill="#242B3D" transform="matrix(0.140625 0 0 0.107422 0 -27.5)" d="M761.412 526.04C766.936 516.122 770.94 505.457 775.226 494.971C777.447 489.54 779.45 483.698 782.635 478.742C783.816 476.903 785.156 475.454 787.144 474.488Q787.595 474.271 788.065 474.102Q788.536 473.932 789.021 473.811Q789.507 473.691 790.002 473.62Q790.497 473.549 790.997 473.528Q791.497 473.508 791.996 473.539Q792.495 473.569 792.989 473.651Q793.482 473.732 793.965 473.863Q794.448 473.994 794.915 474.173C797.041 474.993 798.777 476.558 799.616 478.697C800.348 480.564 800.322 482.72 799.828 484.643C798.154 491.16 793.871 498.12 791.058 504.268Q783.224 521.625 775.717 539.126C770.749 550.272 766.032 564.698 753.857 569.876C744.914 573.68 732.304 572.436 723.473 568.906C720.786 567.831 717.425 566.148 716.307 563.264C715.339 560.769 716.298 556.332 717.439 553.991C722.119 544.389 737.595 556.458 745.351 553.291C746.971 552.629 748.479 551.137 749.082 549.487C749.872 547.323 749.422 544.635 748.796 542.488C746.945 536.147 743.313 529.916 740.413 523.982L724.92 492.28C723.028 488.346 720.722 483.26 722.453 478.897C723.553 476.125 725.92 475.179 728.502 474.121C730.376 473.966 732.676 473.764 734.489 474.306C736.389 474.874 737.519 476.155 738.592 477.747C741.526 482.1 743.453 487.374 745.589 492.152C750.635 503.438 755.281 515.291 761.412 526.04Z"/>
		<path fill="#242B3D" transform="matrix(0.140625 0 0 0.107422 0 -27.5)" d="M451.508 453.66C455.268 453.408 459.529 453.02 463.166 454.192C467.257 455.511 469.26 459.062 471.056 462.708C477.889 476.582 483.461 491.667 489.684 505.888L500.685 531.043C503.012 536.374 505.654 541.763 507.399 547.31C508.034 549.329 508.518 551.413 507.718 553.458C506.975 555.355 505.353 556.672 503.518 557.462C500.57 558.731 496.583 558.916 493.598 557.668C486.495 554.7 482.805 542.202 480.185 535.576C473.709 535.482 467.227 535.519 460.75 535.497L431.64 535.506L429.845 540.033C427.513 545.868 424.584 554.92 418.193 557.409C414.946 558.674 410.637 558.455 407.53 556.891C405.732 555.986 404.287 554.466 403.727 552.505C403.087 550.268 404.451 547.267 405.224 545.155C410.175 531.617 416.964 518.453 422.724 505.219C429.207 490.32 434.957 474.432 442.725 460.19C444.879 456.24 447.272 454.875 451.508 453.66ZM455.724 476.29L437.936 517.26L457.533 517.41C463.028 517.425 468.548 517.554 474.04 517.378C470.799 509.429 460.329 480.994 455.724 476.29Z"/>
		<path fill="#242B3D" transform="matrix(0.140625 0 0 0.107422 0 -27.5)" d="M840.868 473.698C853.67 472.87 861.619 477.373 871.57 484.719L871.785 483.877C872.464 481.146 872.889 479.138 874.987 477.158C877.329 474.949 880.594 473.29 883.885 473.489C886.435 473.643 889.179 475.177 890.702 477.23C891.995 478.972 892.266 483.479 892.402 485.653C893.112 496.971 892.447 508.658 892.474 520.014C892.494 528.48 893.608 545.869 891.905 553.594C890.708 555.251 889.7 556.24 887.789 557.039C884.877 558.256 879.617 559.065 876.698 557.526C873.389 555.783 873.045 550.335 872.301 547.009L868.301 550.44Q867.314 551.24 866.275 551.971Q865.237 552.703 864.152 553.364Q863.067 554.025 861.94 554.612Q860.814 555.199 859.65 555.709Q858.487 556.22 857.292 556.651Q856.097 557.083 854.876 557.434Q853.655 557.785 852.413 558.053Q851.172 558.322 849.915 558.507C839.407 560.017 828.23 557.864 819.657 551.435C810.509 544.577 805.5 534.228 803.968 523.058C802.287 510.81 805.215 498.114 812.826 488.264C819.959 479.034 829.581 475.178 840.868 473.698ZM843.983 491.564C836.758 493.58 830.965 496.514 827.09 503.323C823.505 509.622 822.676 517.661 824.807 524.578C826.606 530.415 830.395 535.477 835.838 538.36C841.098 541.146 846.676 541.363 852.433 540.498C859.455 538.544 865.051 535.325 868.803 528.793C872.335 522.645 872.891 515.474 870.879 508.733C868.986 502.388 864.824 496.93 858.854 493.93C854.201 491.592 849.115 490.915 843.983 491.564Z"/>
		<path fill="#A94AAB" transform="matrix(0.140625 0 0 0.107422 0 -27.5)" d="M84.7759 408.273C85.6737 403.508 86.8941 398.883 88.7726 394.402C95.7137 377.846 109.803 364.833 126.383 358.18C132.489 355.73 138.896 354.563 145.434 354.043C157.442 353.088 169.618 353.482 181.658 353.518L236.589 353.73L280.244 353.694C290.607 353.655 301.091 353.278 311.418 354.282C318.062 354.929 324.328 356.391 330.447 359.062C346.853 366.222 361.253 379.372 367.828 396.269C367.689 396.502 367.468 396.703 367.411 396.968C367.179 398.042 374.151 416.998 372.321 424.444C372.137 423.789 372.051 423.229 372.045 422.547C372.027 420.507 372.102 417.611 370.485 416.075C367.223 412.975 356.618 417.034 352.443 417.201C352.19 417.025 351.844 416.936 351.683 416.673C351.29 416.032 351.36 412.685 351.141 411.679C350.08 406.819 347.855 400.37 344.919 396.317C343.869 394.867 342.848 393.395 341.768 391.968C340.646 390.486 339.362 388.698 337.465 388.426C330.001 382.593 323.145 377.777 313.639 375.938C300.445 373.385 285.998 374.456 272.594 374.465L211.958 374.508C201.228 374.511 190.483 374.6 179.754 374.432C169.483 374.271 159.242 373.65 149.001 374.901Q147.77 375.062 146.549 375.284Q145.328 375.505 144.119 375.787Q142.91 376.068 141.716 376.409Q140.522 376.749 139.347 377.148Q138.171 377.547 137.017 378.003Q135.863 378.459 134.732 378.972Q133.602 379.484 132.498 380.052Q131.394 380.619 130.319 381.24Q129.244 381.861 128.201 382.534Q127.159 383.208 126.15 383.931Q125.142 384.655 124.17 385.427Q123.198 386.2 122.266 387.019Q121.333 387.838 120.442 388.703Q119.551 389.567 118.704 390.474Q117.857 391.381 117.055 392.328Q116.253 393.276 115.499 394.262C110.589 400.677 106.955 408.076 105.755 416.106Q105.246 422.365 104.898 428.634L104.398 428.676C101.983 430.886 105.326 438.694 103.383 441.654C102.633 441.054 102.616 440.771 101.617 440.827C98.4745 445.597 91.8005 443.662 87.3734 445.734C85.5125 446.605 85.9668 449.43 84.5895 450.613C84.2975 444.487 85.2131 433.015 83.9644 427.725C83.8931 427.423 83.8109 427.123 83.7341 426.822C83.8892 420.612 83.9919 414.443 84.7759 408.273Z"/>
		<defs>
			<linearGradient id="gradient_0" gradientUnits="userSpaceOnUse" x1="244.82001" y1="667.46198" x2="219.489" y2="428.49301">
				<stop offset="0" stop-color="#492E86"/>
				<stop offset="1" stop-color="#9948A5"/>
			</linearGradient>
		</defs>
		<path fill="url(#gradient_0)" transform="matrix(0.140625 0 0 0.107422 0 -27.5)" d="M337.465 388.426C339.362 388.698 340.646 390.486 341.768 391.968C342.848 393.395 343.869 394.867 344.919 396.317C347.855 400.37 350.08 406.819 351.141 411.679C351.36 412.685 351.29 416.032 351.683 416.673C351.844 416.936 352.19 417.025 352.443 417.201C356.618 417.034 367.223 412.975 370.485 416.075C372.102 417.611 372.027 420.507 372.045 422.547C372.051 423.229 372.137 423.789 372.321 424.444C374.151 416.998 367.179 398.042 367.411 396.968C367.468 396.703 367.689 396.502 367.828 396.269C371.176 403.056 372.487 410.878 373.042 418.363C373.784 428.372 373.196 438.64 373.119 448.683L372.986 498.058L373.055 560.277C373.081 572.389 373.594 584.699 372.816 596.787Q372.533 601.658 371.619 606.451Q370.704 611.243 369.173 615.876Q368.66 617.462 368.068 619.02Q367.476 620.578 366.807 622.104Q366.138 623.631 365.394 625.122Q364.65 626.614 363.832 628.066Q363.014 629.518 362.125 630.928Q361.236 632.338 360.277 633.701Q359.319 635.065 358.294 636.379Q357.268 637.693 356.179 638.954Q355.089 640.215 353.938 641.421Q352.787 642.626 351.577 643.772Q350.367 644.919 349.102 646.003Q347.836 647.088 346.518 648.108Q345.2 649.128 343.832 650.081Q342.465 651.034 341.052 651.917Q339.638 652.801 338.183 653.613Q336.727 654.425 335.233 655.163C327.893 658.806 320.332 660.564 312.214 661.387C301.475 662.475 290.536 662.072 279.748 662.066L231.636 662.014L182.771 662.147C171.622 662.194 160.36 662.511 149.234 661.717C142.082 661.207 135.137 659.955 128.341 657.636C111.474 651.882 97.6063 637.917 90.0184 622.011C86.827 615.321 85.0018 608.333 84.2722 600.966C83.3559 591.714 83.6732 582.26 83.6772 572.971L83.6357 532.492L83.5794 465.877C83.5731 452.877 83.3201 439.813 83.7341 426.822C83.8109 427.123 83.8931 427.423 83.9644 427.725C85.2131 433.015 84.2975 444.487 84.5895 450.613C85.9668 449.43 85.5125 446.605 87.3734 445.734C91.8005 443.662 98.4745 445.597 101.617 440.827C102.616 440.771 102.633 441.054 103.383 441.654C105.326 438.694 101.983 430.886 104.398 428.676L104.898 428.634C105.316 433.58 104.96 438.786 104.897 443.76Q104.714 457.235 104.691 470.712L104.932 555.157C104.93 569.265 103.697 584.724 105.994 598.656C107.261 606.341 110.018 613.771 114.62 620.091C122.302 630.64 133.786 636.855 146.532 638.852C159.225 640.84 172.622 640.065 185.454 640.052L242.252 639.994L285.269 640.036C294.669 640.049 304.512 640.622 313.816 639.254C320.53 638.267 327.54 635.292 332.996 631.277C342.881 624.004 348.937 613.477 350.683 601.427C352.212 590.872 351.491 579.596 351.49 568.946L351.485 515.543L351.507 452.176C351.511 439.325 352.662 425.397 350.268 412.768C348.324 402.515 343.524 396.613 337.465 388.426Z"/>
		<path fill="#242B3D" transform="matrix(0.140625 0 0 0.107422 0 -27.5)" d="M105.755 416.106C106.955 408.076 110.589 400.677 115.499 394.262Q116.253 393.276 117.055 392.328Q117.857 391.381 118.704 390.474Q119.551 389.567 120.442 388.703Q121.333 387.838 122.266 387.019Q123.198 386.2 124.17 385.427Q125.142 384.655 126.15 383.931Q127.159 383.208 128.201 382.534Q129.244 381.861 130.319 381.24Q131.394 380.619 132.498 380.052Q133.602 379.484 134.732 378.972Q135.863 378.459 137.017 378.003Q138.171 377.547 139.347 377.148Q140.522 376.749 141.716 376.409Q142.91 376.068 144.119 375.787Q145.328 375.505 146.549 375.284Q147.77 375.062 149.001 374.901C159.242 373.65 169.483 374.271 179.754 374.432C190.483 374.6 201.228 374.511 211.958 374.508L272.594 374.465C285.998 374.456 300.445 373.385 313.639 375.938C323.145 377.777 330.001 382.593 337.465 388.426C343.524 396.613 348.324 402.515 350.268 412.768C352.662 425.397 351.511 439.325 351.507 452.176L351.485 515.543L351.49 568.946C351.491 579.596 352.212 590.872 350.683 601.427C348.937 613.477 342.881 624.004 332.996 631.277C327.54 635.292 320.53 638.267 313.816 639.254C304.512 640.622 294.669 640.049 285.269 640.036L242.252 639.994L185.454 640.052C172.622 640.065 159.225 640.84 146.532 638.852C133.786 636.855 122.302 630.64 114.62 620.091C110.018 613.771 107.261 606.341 105.994 598.656C103.697 584.724 104.93 569.265 104.932 555.157L104.691 470.712Q104.714 457.235 104.897 443.76C104.96 438.786 105.316 433.58 104.898 428.634Q105.246 422.365 105.755 416.106Z"/>
		<path fill="#FEB7F3" transform="matrix(0.140625 0 0 0.107422 0 -27.5)" d="M138.024 480.636C139.181 478.063 139.72 476.365 142.484 475.255C143.73 475.342 144.384 475.268 145.21 476.383C146.487 478.106 145.991 480.388 145.398 482.233Q145.161 482.963 144.901 483.686C142.464 481.537 141.285 480.989 138.024 480.636Z"/>
		<path fill="#DB80EE" transform="matrix(0.140625 0 0 0.107422 0 -27.5)" d="M253.275 515.003Q255.196 515.106 257.067 515.551C259.376 516.1 261.638 517.613 262.86 519.679C264.025 521.648 264.196 524.066 263.543 526.235C262.333 530.25 259.539 532.007 255.995 533.783C254.4 533.798 252.872 533.784 251.352 533.236Q250.88 533.068 250.428 532.851Q249.976 532.633 249.55 532.369Q249.123 532.105 248.728 531.797Q248.332 531.489 247.972 531.14Q247.611 530.792 247.29 530.407Q246.968 530.022 246.69 529.605Q246.411 529.188 246.179 528.744Q245.946 528.299 245.762 527.833C244.816 525.381 245.036 522.726 246.193 520.388C247.719 517.303 250.183 516.145 253.275 515.003Z"/>
		<path fill="#DB80EE" transform="matrix(0.140625 0 0 0.107422 0 -27.5)" d="M267.676 549.45C269.215 549.44 270.77 549.566 272.246 550.04C274.44 550.744 276.413 552.26 277.473 554.324C278.562 556.444 278.602 558.887 277.855 561.121C276.577 564.937 273.925 566.712 270.502 568.487C269.14 568.383 267.827 568.139 266.513 567.758C263.987 567.026 261.565 565.304 260.359 562.921C259.304 560.835 259.23 558.489 260.044 556.313C261.427 552.615 264.344 551.079 267.676 549.45Z"/>
		<path fill="#DB80EE" transform="matrix(0.140625 0 0 0.107422 0 -27.5)" d="M193.632 515.487C195.091 515.455 196.583 515.417 198.029 515.64C200.656 516.046 203.298 517.737 204.731 519.982Q204.956 520.337 205.145 520.713Q205.333 521.089 205.482 521.483Q205.631 521.876 205.739 522.282Q205.847 522.689 205.913 523.104Q205.98 523.519 206.003 523.939Q206.027 524.359 206.008 524.779Q205.989 525.199 205.927 525.615Q205.866 526.031 205.762 526.439C204.825 530.225 202.23 532.027 199.067 533.903C197.505 534.249 196.123 534.427 194.53 534.126C192.193 533.685 190.104 532.498 188.775 530.496C187.269 528.228 186.982 525.41 187.584 522.796C188.432 519.114 190.625 517.454 193.632 515.487Z"/>
		<path fill="#DB80EE" transform="matrix(0.140625 0 0 0.107422 0 -27.5)" d="M180.568 550.046C182.107 550.166 183.684 550.284 185.17 550.724C187.692 551.469 190.07 553.364 191.276 555.709Q191.465 556.075 191.616 556.459Q191.767 556.842 191.879 557.239Q191.991 557.635 192.062 558.041Q192.134 558.447 192.165 558.858Q192.196 559.269 192.185 559.681Q192.175 560.093 192.123 560.502Q192.071 560.91 191.979 561.312Q191.887 561.714 191.755 562.104C190.506 565.805 187.603 567.427 184.28 568.982C183.217 569.014 182.142 569.037 181.095 568.816C178.279 568.221 175.676 566.479 174.266 563.941Q174.027 563.509 173.834 563.053Q173.642 562.598 173.5 562.124Q173.357 561.651 173.266 561.165Q173.174 560.68 173.135 560.187Q173.096 559.694 173.11 559.2Q173.123 558.706 173.189 558.216Q173.255 557.726 173.373 557.246Q173.491 556.766 173.659 556.301C174.899 552.836 177.348 551.448 180.568 550.046Z"/>
		<path fill="#DB80EE" transform="matrix(0.140625 0 0 0.107422 0 -27.5)" d="M158.994 491.211C160.516 491.364 162.347 491.409 163.608 492.351C165.164 493.515 162.248 508.452 162.089 511.626C161.661 520.197 162.537 524.98 166.051 532.731C167.172 535.206 168.352 537.709 168.831 540.405C169.25 542.768 168.803 543.893 167.487 545.793C166.927 545.765 166.061 545.776 165.516 545.558C162.71 544.434 160.772 540.878 159.753 538.216C154.278 523.926 152.638 505.448 158.994 491.211Z"/>
		<path fill="#DB80EE" transform="matrix(0.140625 0 0 0.107422 0 -27.5)" d="M288.178 489.29C289.176 489.456 289.784 489.583 290.637 490.166C292.908 491.718 294.208 495.527 294.657 498.087C297.388 513.683 295.312 532.821 286.089 546.047C284.959 545.575 283.67 545.057 282.864 544.092C281.248 542.158 282.329 538.678 283.145 536.597C287.237 526.157 290.024 516.311 287.879 504.985C287.063 500.678 285.644 496.421 285.507 492.022C285.89 490.691 287.112 490.064 288.178 489.29Z"/>
		<path fill="#DB80EE" transform="matrix(0.140625 0 0 0.107422 0 -27.5)" d="M228.692 515.138C229.272 520.447 228.572 525.793 228.726 531.131Q229.218 552.223 229.045 573.321C229.028 582.452 229.412 592.042 228.356 601.102C228.215 602.307 227.992 603.377 227.152 604.305C226.218 605.337 225.376 605.513 224.052 605.607C222.837 605.052 222.144 604.79 221.685 603.448C221.027 601.523 220.927 520.726 221.817 517.139L222.78 517.54C224.758 517.027 227.634 516.895 228.692 515.138Z"/>
		<defs>
			<linearGradient id="gradient_1" gradientUnits="userSpaceOnUse" x1="152.179" y1="571.35999" x2="190.59" y2="516.159">
				<stop offset="0" stop-color="#C565E7"/>
				<stop offset="1" stop-color="#F49DF8"/>
			</linearGradient>
		</defs>
		<path fill="url(#gradient_1)" transform="matrix(0.140625 0 0 0.107422 0 -27.5)" d="M144.901 483.686C144.773 484.001 144.641 484.315 144.518 484.632C137.152 503.533 139.271 527.82 147.447 546.065C155.759 564.613 171.052 580.374 189.831 588.359C195.054 590.58 200.666 591.724 205.911 593.833C208.244 594.772 209.67 595.315 210.665 597.707C210.45 598.966 210.49 599.559 209.225 600.221C207.168 601.298 203.912 600.72 201.775 600.219C178.433 594.74 158.163 578.306 145.79 558.088C130.347 532.852 131.299 508.39 138.024 480.636C141.285 480.989 142.464 481.537 144.901 483.686Z"/>
		<path fill="#DB80EE" transform="matrix(0.140625 0 0 0.107422 0 -27.5)" d="M305.356 475.834C306.031 475.922 306.798 476.007 307.414 476.313C309.448 477.324 310.725 480.196 311.438 482.205C319.243 504.203 317.481 531.828 307.106 552.629C298.329 570.225 283.287 585.628 265.427 594.011C258.58 597.225 251.317 599.43 244.148 601.8C244.019 601.769 243.887 601.748 243.76 601.707C242.204 601.2 240.604 600.126 239.78 598.713C239.888 596.208 241.697 595.221 243.768 594.158C248.131 591.918 253.315 591.104 257.902 589.323C272.604 583.617 285.146 572.499 294.075 559.652C306.002 542.492 311.89 519.721 308.079 498.986C306.844 492.267 303.884 485.997 302.668 479.258C302.939 477.681 304.224 476.846 305.356 475.834Z"/>
		<path fill="#FEB7F3" transform="matrix(0.140625 0 0 0.107422 0 -27.5)" d="M221.87 509.235C206.749 499.456 191.049 490.123 175.537 480.968C166.274 475.501 153.713 470.705 146.393 462.893C146.335 462.432 146.27 462.192 146.394 461.696C147.821 455.955 166.883 441.328 171.947 437.851C191.929 424.131 216.401 418.203 240.339 422.869C264.805 427.639 288.79 442.318 302.847 463.1C296.502 468.72 289.019 472.945 281.789 477.307L247.62 497.899C241.463 501.616 234.764 505.129 229.056 509.474C228.217 511.054 228.622 513.385 228.692 515.138C227.634 516.895 224.758 517.027 222.78 517.54L221.817 517.139C221.883 514.508 221.855 511.867 221.87 509.235Z"/>
		<path fill="#242B3D" transform="matrix(0.140625 0 0 0.107422 0 -27.5)" d="M216.296 428.172C218.015 427.981 219.731 427.899 221.459 427.854C250.502 427.09 273.687 442.256 294.061 461.468C285.998 467.315 277.221 472.25 268.682 477.362L231.295 499.707L225.427 503.383Q207.008 492.76 189.004 481.447C177.872 474.505 166.911 467.241 155.154 461.388C171.809 442.971 191.688 431.689 216.296 428.172Z"/>
		<path fill="#DB80EE" transform="matrix(0.140625 0 0 0.107422 0 -27.5)" d="M254.307 449.49C255.366 449.476 256.449 449.451 257.503 449.569C260.018 449.849 262.7 451.412 264.095 453.533C265.362 455.459 265.638 457.613 265.044 459.822C264.165 463.096 261.832 464.651 259.054 466.281C258.209 466.322 257.347 466.361 256.503 466.282C253.917 466.038 251.264 464.896 249.696 462.763C248.345 460.926 248.093 458.677 248.549 456.487C249.267 453.042 251.552 451.358 254.307 449.49Z"/>
		<path fill="#DB80EE" transform="matrix(0.140625 0 0 0.107422 0 -27.5)" d="M189.012 450.536C190.33 450.479 191.696 450.367 193.01 450.497C195.351 450.729 198.066 452.393 199.389 454.328C200.671 456.204 201.024 458.335 200.485 460.533C199.661 463.893 197.26 465.581 194.489 467.342C193.089 467.533 191.468 467.639 190.076 467.383C187.911 466.986 185.787 465.689 184.546 463.859C183.207 461.885 182.888 459.518 183.369 457.209C184.076 453.811 186.211 452.284 189.012 450.536Z"/>
		<path fill="#DB80EE" transform="matrix(0.140625 0 0 0.107422 0 -27.5)" d="M222.075 461.453Q223.291 461.379 224.51 461.392C227.456 461.444 230.165 462.606 232.146 464.825Q232.459 465.179 232.732 465.564Q233.006 465.949 233.237 466.361Q233.469 466.772 233.656 467.206Q233.843 467.64 233.983 468.091Q234.124 468.542 234.216 469.005Q234.308 469.468 234.351 469.938Q234.393 470.409 234.386 470.881Q234.38 471.353 234.323 471.822C233.865 475.802 231.282 478.248 228.234 480.52C226.998 480.562 225.742 480.611 224.514 480.451C221.613 480.072 218.7 478.582 216.958 476.184Q216.706 475.837 216.49 475.467Q216.275 475.097 216.098 474.707Q215.921 474.317 215.784 473.911Q215.647 473.504 215.552 473.087Q215.457 472.669 215.405 472.244Q215.353 471.818 215.344 471.39Q215.335 470.962 215.369 470.535Q215.404 470.107 215.481 469.686C216.191 465.728 218.891 463.548 222.075 461.453Z"/>
	</g>
</svg>
