<?xml version="1.0" encoding="utf-8" ?>
<svg xmlns="http://www.w3.org/2000/svg" xmlns:xlink="http://www.w3.org/1999/xlink" width="31" height="31">
	<path fill="#505051" transform="scale(0.0302439 0.0302734)" d="M105.051 581.101C108.295 582.319 110.11 587.897 112.282 590.632C113.632 593.98 116.816 596.116 118.316 599.243C116.197 598.78 114.168 595.358 113.03 593.593Q112.437 592.671 111.859 591.739C111.901 595.185 111.46 598.343 110.844 601.73C112.255 605.727 116.318 611.013 116.353 615.035C109.882 604.884 106.564 592.949 105.051 581.101Z"/>
	<path fill="#9359AE" transform="scale(0.0302439 0.0302734)" d="M493.138 144.208C524.667 143.348 559.064 151.773 586.693 167.006C599.128 173.861 610.829 182.349 623.467 188.777L623.154 189.509C612.781 189.792 602.76 190.859 592.57 192.807C587.248 193.823 581.231 195.827 575.904 196.147C565.201 193.827 541.943 168.15 530.705 160.54C527.927 158.659 524.969 156.881 521.935 155.445C519.46 154.273 497.197 145.127 495.572 145.268C492.802 145.508 488.245 151.797 482.835 152.787C482.684 152.815 482.532 152.837 482.38 152.862C485.365 150.433 489.073 149.238 491.917 146.514C492.473 145.905 492.786 144.958 493.138 144.208Z"/>
	<defs>
		<linearGradient id="gradient_0" gradientUnits="userSpaceOnUse" x1="581.23901" y1="882.70001" x2="504.59299" y2="510.543">
			<stop offset="0" stop-color="#1F1F20"/>
			<stop offset="1" stop-color="#3B3B3C"/>
		</linearGradient>
	</defs>
	<path fill="url(#gradient_0)" transform="scale(0.0302439 0.0302734)" d="M118.316 599.243C122.622 604.34 128.025 608.783 133.241 612.932C150.605 626.743 169.692 638.774 187.845 651.546L292.993 726.12Q342.543 762.057 392.54 797.372C414.645 813.221 443.924 836.166 468.06 846.938C493.527 858.306 526.38 863.048 554.023 859.842C579.166 856.925 603.239 849.257 624.123 834.665C646.835 818.796 665.466 797.009 684.539 777.068L738.862 721.341L838.967 618.328C855.966 600.874 872.559 583.076 889.406 565.483C897.248 557.293 904.903 549.124 912.445 540.659C914.05 538.857 916.221 537.341 917.638 535.452C919.347 533.175 920.31 530.429 922.099 528.172C922.744 529.533 920.174 540.329 919.787 542.72L920.482 543.384C919.306 551.156 915.844 558.653 911.017 564.845C891.249 590.202 867.59 613.272 845.274 636.39L737.837 747.123L665.153 823.563C651.38 837.855 637.987 853.402 621.985 865.227C614.924 870.444 607.328 874.249 599.284 877.676C571.699 889.432 543.556 892.188 513.924 887.662C495.189 884.8 477.294 879.54 460.815 870.09C452.53 865.338 444.781 859.659 436.974 854.173L401.914 829.251Q346.35 789.86 291.341 749.7C262.552 728.819 233.673 707.935 204.509 687.587Q180.975 671.463 157.898 654.691C150.897 649.642 143.721 644.761 136.97 639.38Q132.46 635.808 128.475 631.659Q124.489 627.511 121.101 622.861C119.481 620.649 117.177 617.664 116.353 615.035C116.318 611.013 112.255 605.727 110.844 601.73C111.46 598.343 111.901 595.185 111.859 591.739Q112.437 592.671 113.03 593.593C114.168 595.358 116.197 598.78 118.316 599.243Z"/>
	<path fill="#654777" transform="scale(0.0302439 0.0302734)" d="M901.024 352.857C914.253 362.057 928.48 386.017 933.514 401.277C935.554 408.679 937.118 416.585 937.073 424.293C936.976 440.677 933.503 457.841 931.258 474.069C928.067 497.114 925.564 520.673 920.482 543.384L919.787 542.72C920.174 540.329 922.744 529.533 922.099 528.172C920.31 530.429 919.347 533.175 917.638 535.452C916.221 537.341 914.05 538.857 912.445 540.659C904.903 549.124 897.248 557.293 889.406 565.483C872.559 583.076 855.966 600.874 838.967 618.328L738.862 721.341L684.539 777.068C665.466 797.009 646.835 818.796 624.123 834.665C603.239 849.257 579.166 856.925 554.023 859.842C526.38 863.048 493.527 858.306 468.06 846.938C443.924 836.166 414.645 813.221 392.54 797.372Q342.543 762.056 292.993 726.12L187.845 651.546C169.692 638.774 150.605 626.743 133.241 612.932C128.025 608.783 122.622 604.34 118.316 599.243C116.816 596.116 113.632 593.98 112.282 590.632C110.11 587.897 108.295 582.319 105.051 581.101C103.225 573.649 102.948 565.131 102.082 557.492Q99.86 536.562 96.8444 515.732C96.1055 510.445 95.1383 505.182 94.3471 499.901C91.8673 490.609 91.8344 478.523 92.8392 468.961C95.3039 445.505 108.591 422.729 126.903 407.959C125.818 411.388 122.417 414.804 120.25 417.672C115.27 424.263 107.521 434.758 105.764 442.806C96.966 465.338 97.7207 489.34 107.404 511.497C112.254 522.595 119.289 531.496 128.421 539.392C138.656 548.242 150.736 555.615 161.93 563.212L216.196 600.279Q261.419 632.287 307.359 663.259L335.205 682.445C340.271 685.939 345.32 689.728 350.582 692.896C360.619 700.157 370.963 706.972 381.095 714.097C385.964 717.522 394.06 724.229 399.247 726.494C407.154 732.413 415.381 737.947 423.455 743.635C428.014 746.846 433.411 751.487 438.462 753.76C466.951 774.353 489.774 783.909 524.545 787.333C527.202 787.56 529.861 787.866 532.53 787.776C540.288 788.043 547.868 787.955 555.607 787.226C560.193 786.129 565.067 785.748 569.714 784.701C591.481 779.801 610.813 771.518 629.045 758.569C640.019 749.967 650.753 739.69 660.35 729.574C667.015 722.551 673.257 715.19 680.055 708.27L761.176 626.493L869.146 515.946C884.029 500.525 903.41 483.749 915.982 466.665C924.422 455.194 927.424 441.575 929.883 427.826C930.389 404.044 925.4 386.282 911.637 366.644C908.671 362.411 903.585 358.31 901.431 353.763C901.29 353.464 901.16 353.159 901.024 352.857Z"/>
	<path fill="#62397F" transform="scale(0.0302439 0.0302734)" d="M629.045 758.569C626.34 766.156 617.816 770.042 611.043 773.254C598.076 779.403 569.743 789.806 555.67 787.701L555.607 787.226C560.193 786.129 565.067 785.748 569.714 784.701C591.481 779.801 610.813 771.518 629.045 758.569Z"/>
	<path fill="#9359AE" transform="scale(0.0302439 0.0302734)" d="M96.8444 515.732L97.4058 513.924L98.2665 513.888C99.3866 515.216 100.105 516.673 100.896 518.212C101.954 522.007 103.504 526.57 105.597 529.896C106.534 532.264 106.692 536.42 105.76 538.826C105.637 539.143 105.453 539.434 105.3 539.738C104.421 537.944 104.695 535.479 104.599 533.498C103.571 534.473 102.311 547.265 102.218 549.459C102.018 554.189 104.149 574.522 105.816 578.919C107.223 582.625 111.975 586.77 112.282 590.632C110.11 587.897 108.295 582.319 105.051 581.101C103.225 573.649 102.948 565.131 102.082 557.492Q99.86 536.562 96.8444 515.732Z"/>
	<path fill="#9359AE" transform="scale(0.0302439 0.0302734)" d="M901.024 352.857C914.253 362.057 928.48 386.017 933.514 401.277C932.605 406.281 933.874 411.595 934.344 416.622C935.692 431.061 933.091 446.131 924.635 458.14C927.845 448.403 930.639 438.157 929.883 427.826C930.389 404.044 925.4 386.282 911.637 366.644C908.671 362.411 903.585 358.31 901.431 353.763C901.29 353.464 901.16 353.159 901.024 352.857Z"/>
	<defs>
		<linearGradient id="gradient_1" gradientUnits="userSpaceOnUse" x1="256.66501" y1="679.88501" x2="352.82901" y2="586.492">
			<stop offset="0" stop-color="#8D60A0"/>
			<stop offset="1" stop-color="#AA73C6"/>
		</linearGradient>
	</defs>
	<path fill="url(#gradient_1)" transform="scale(0.0302439 0.0302734)" d="M94.3471 499.901C91.8673 490.609 91.8344 478.523 92.8392 468.961C95.3039 445.505 108.591 422.729 126.903 407.959C125.818 411.388 122.417 414.804 120.25 417.672C115.27 424.263 107.521 434.758 105.764 442.806C96.966 465.338 97.7207 489.34 107.404 511.497C112.254 522.595 119.289 531.496 128.421 539.392C138.656 548.242 150.736 555.615 161.93 563.212L216.196 600.279Q261.419 632.287 307.359 663.259L335.205 682.445C340.271 685.939 345.32 689.728 350.582 692.896C360.619 700.157 370.963 706.972 381.095 714.097C385.964 717.522 394.06 724.229 399.247 726.494C407.154 732.413 415.381 737.947 423.455 743.635C428.014 746.846 433.411 751.487 438.462 753.76C466.951 774.353 489.774 783.909 524.545 787.333C527.202 787.56 529.861 787.866 532.53 787.776C540.288 788.043 547.868 787.955 555.607 787.226L555.67 787.701C553.079 788.37 550.207 788.389 547.541 788.812C549.277 789.476 550.039 790.026 550.896 791.713C550.791 792.636 550.726 793.199 550.917 794.12C553.084 794.31 555.028 793.387 557.178 793.904C535.014 797.493 507.554 793.45 486.062 787.76Q481.797 786.673 477.626 785.267Q473.455 783.86 469.402 782.142Q465.35 780.423 461.439 778.402Q457.528 776.382 453.782 774.071C433.112 761.313 412.758 745.89 392.771 731.948L291.369 661.348L189.528 591.063L141.393 557.678C135.719 553.675 129.818 549.859 124.26 545.718C122.25 544.219 119.803 542.206 118.524 540.023C116.564 536.993 113.86 534.213 111.604 531.366C108.229 527.106 105.296 522.691 102.541 518.01C99.8571 512.582 98.4475 504.188 94.3471 499.901Z"/>
	<defs>
		<linearGradient id="gradient_2" gradientUnits="userSpaceOnUse" x1="798.65399" y1="628.05402" x2="521.96997" y2="432.077">
			<stop offset="0" stop-color="#1B1B1B"/>
			<stop offset="1" stop-color="#353535"/>
		</linearGradient>
	</defs>
	<path fill="url(#gradient_2)" transform="scale(0.0302439 0.0302734)" d="M710.367 238.809C719.207 244.284 728.537 249.051 737.522 254.3L840.497 313.482C854.383 321.564 892.194 341.555 901.024 352.857C901.16 353.159 901.29 353.464 901.431 353.763C903.585 358.31 908.671 362.411 911.637 366.644C925.4 386.282 930.389 404.044 929.883 427.826C927.424 441.575 924.422 455.194 915.982 466.665C903.41 483.749 884.029 500.525 869.146 515.946L761.176 626.493L680.055 708.27C673.257 715.19 667.015 722.551 660.35 729.574C650.753 739.69 640.019 749.967 629.045 758.569C610.813 771.518 591.481 779.801 569.714 784.701C565.067 785.748 560.193 786.129 555.607 787.226C547.868 787.955 540.288 788.043 532.53 787.776C531.418 787.676 530.474 787.705 529.517 787.077C529.694 783.859 535.138 781.139 537.224 778.792C537.379 778.617 537.531 778.438 537.685 778.262L537.139 776.711C540.528 774.002 543.664 770.496 546.814 767.484C556.279 758.429 565.391 749.376 573.362 738.944C584.213 724.743 591.718 709.536 599.263 693.476C601.857 687.952 604.803 682.384 606.786 676.617C613.492 657.121 618.891 624.829 619.323 603.925C619.749 583.338 618.616 562.291 613.391 542.279C612.887 540.346 612.655 537.368 611.322 535.982C609.103 531.644 608.524 525.245 607.157 520.455C606.062 516.617 596.017 486.696 594.209 485.547C587.025 465.687 580.556 445.902 579.082 424.68C575.072 392.745 581.615 353.345 598.832 325.97C598.937 325.737 599.04 325.503 599.148 325.27C608.852 304.322 636.405 278.17 655.52 265.289C661.606 261.188 672.206 255.464 678.857 252.309C689.521 247.25 698.892 244.802 709.728 240.957L710.024 240.302L709.096 239.145L710.367 238.809Z"/>
	<path fill="#505051" transform="scale(0.0302439 0.0302734)" d="M598.832 325.97C599.032 325.851 599.239 325.741 599.433 325.614C601.299 324.389 603.357 318.523 605.15 318.151C604.78 321.141 602.924 324.373 601.32 326.909C598.552 331.288 596.604 336.607 594.642 341.397C580.442 376.079 581.347 414.673 589.687 450.634C595.365 475.112 605.906 498.21 612.638 522.428C631.371 589.816 624.556 661.798 587.275 721.733C573.757 743.464 555.853 760.519 537.685 778.262L537.139 776.711C540.528 774.002 543.664 770.496 546.814 767.484C556.279 758.429 565.391 749.376 573.362 738.944C584.213 724.743 591.718 709.536 599.263 693.476C601.857 687.952 604.803 682.384 606.786 676.617C613.492 657.121 618.891 624.829 619.323 603.925C619.749 583.338 618.616 562.291 613.391 542.279C612.887 540.346 612.655 537.368 611.322 535.982C609.103 531.644 608.524 525.245 607.157 520.455C606.062 516.617 596.017 486.696 594.209 485.547C587.025 465.687 580.556 445.902 579.082 424.68C575.072 392.745 581.615 353.345 598.832 325.97Z"/>
	<path fill="#3F3F41" transform="scale(0.0302439 0.0302734)" d="M579.082 424.68C582.386 432.865 582.927 445.915 585.776 455.253C592.864 478.47 603.026 500.683 609.829 524.047C610.708 527.068 612.236 530.326 612.171 533.502C612.164 533.831 612.081 534.302 611.966 534.619C611.764 535.174 611.59 535.469 611.322 535.982C609.103 531.644 608.524 525.245 607.157 520.455C606.062 516.617 596.017 486.696 594.209 485.547C587.025 465.687 580.556 445.902 579.082 424.68Z"/>
	<path fill="#343333" transform="scale(0.0302439 0.0302734)" d="M126.903 407.959C127.019 407.816 127.128 407.669 127.249 407.531C131.477 402.722 137.359 398.418 142.269 394.264L176.078 366.113L274.69 283.125L370.526 200.645L389.524 184.34C396.094 178.592 402.465 172.457 410.008 167.97C437.504 151.615 461.661 146.066 493.138 144.208C492.786 144.958 492.473 145.905 491.917 146.514C489.073 149.238 485.365 150.433 482.38 152.862C482.532 152.837 482.684 152.815 482.835 152.787C488.245 151.797 492.802 145.508 495.572 145.268C497.197 145.127 519.46 154.273 521.935 155.445C524.969 156.881 527.927 158.659 530.705 160.54C541.943 168.15 565.201 193.827 575.904 196.147C581.231 195.827 587.248 193.823 592.57 192.807C602.76 190.859 612.781 189.792 623.154 189.509L623.467 188.777C631.531 193.474 639.541 198.321 647.729 202.796L688.444 226.284C695.647 230.439 702.891 235.21 710.367 238.809L709.096 239.145L710.024 240.302L709.728 240.957C698.892 244.802 689.521 247.25 678.857 252.309C672.206 255.464 661.606 261.188 655.52 265.289C636.405 278.17 608.852 304.322 599.148 325.27C599.04 325.503 598.937 325.737 598.832 325.97C581.615 353.345 575.072 392.745 579.082 424.68C580.556 445.902 587.025 465.687 594.209 485.547C596.017 486.696 606.062 516.617 607.157 520.455C608.524 525.245 609.103 531.644 611.322 535.982C612.655 537.368 612.887 540.346 613.391 542.279C618.616 562.291 619.749 583.338 619.323 603.925C618.891 624.829 613.492 657.121 606.786 676.617C604.803 682.384 601.857 687.952 599.263 693.476C591.718 709.536 584.213 724.743 573.362 738.944C565.391 749.376 556.279 758.429 546.814 767.484C543.664 770.496 540.528 774.002 537.139 776.711L537.685 778.262C537.531 778.438 537.379 778.617 537.224 778.792C535.138 781.139 529.694 783.859 529.517 787.077C530.474 787.705 531.418 787.676 532.53 787.776C529.861 787.866 527.202 787.56 524.545 787.333C489.774 783.909 466.951 774.353 438.462 753.76C433.411 751.487 428.014 746.846 423.455 743.635C415.381 737.947 407.154 732.413 399.247 726.494C394.06 724.229 385.964 717.522 381.095 714.097C370.963 706.972 360.619 700.157 350.582 692.896C345.32 689.728 340.271 685.939 335.205 682.445L307.359 663.259Q261.419 632.287 216.196 600.279L161.93 563.212C150.736 555.615 138.656 548.242 128.421 539.392C119.289 531.496 112.254 522.595 107.404 511.497C97.7207 489.34 96.966 465.338 105.764 442.806C107.521 434.758 115.27 424.263 120.25 417.672C122.417 414.804 125.818 411.388 126.903 407.959Z"/>
	<path transform="scale(0.0302439 0.0302734)" d="M395.535 440.236C393.008 420.043 387.304 401.204 382.517 381.51C378.458 364.806 375.272 347.023 374.483 329.83C372.048 276.747 389.061 229.2 425.136 189.934C439.604 174.188 456.003 161.946 475.138 152.409C480.345 149.814 486.011 146.769 491.917 146.514C489.073 149.238 485.365 150.433 482.38 152.862C472.268 157.632 463.003 165.3 454.305 172.255C446.479 179.429 438.696 186.813 431.804 194.904Q430.533 196.386 429.293 197.893Q428.052 199.401 426.843 200.933Q425.634 202.466 424.457 204.023Q423.28 205.58 422.135 207.161Q420.991 208.743 419.879 210.347Q418.768 211.952 417.69 213.58Q416.61 215.207 415.566 216.856Q414.522 218.505 413.512 220.176Q412.502 221.847 411.527 223.537Q410.552 225.228 409.612 226.939Q408.672 228.65 407.767 230.38Q406.863 232.11 405.994 233.858Q405.126 235.606 404.293 237.372Q403.462 239.138 402.666 240.92Q401.871 242.703 401.112 244.502Q400.354 246.301 399.633 248.115Q398.912 249.929 398.229 251.758Q397.545 253.586 396.899 255.428Q396.255 257.27 395.647 259.126Q395.039 260.981 394.471 262.849Q393.902 264.717 393.373 266.595Q392.842 268.473 392.352 270.363Q391.861 272.252 391.409 274.152Q390.957 276.051 390.545 277.958Q390.133 279.866 389.76 281.783Q389.387 283.699 389.054 285.622Q388.72 287.546 388.427 289.476Q388.134 291.406 387.88 293.341Q387.627 295.277 387.414 297.217Q387.201 299.158 387.029 301.102Q386.855 303.047 386.722 304.994Q386.589 306.942 386.497 308.892C385.481 333.068 389.134 356.404 394.976 379.806C398.241 392.877 402.138 405.984 404.754 419.189Q408.169 437.057 408.949 455.232C408.846 464.095 408.653 472.96 407.575 481.768C402.338 524.525 381.864 563.182 351.193 593.173C341.301 602.846 329.882 613.702 317.783 620.501Q307.175 627.34 296.097 633.39C292.029 635.572 287.196 637.411 283.43 639.988C283.375 640.677 283.129 641.353 283.562 641.952C284.632 643.433 287.761 644.294 289.35 645.389C292.17 647.33 294.566 649.908 297.359 651.906C301.658 654.981 306.462 657.439 310.815 660.502C323.192 669.208 339.071 683.034 353.091 688.232C353.512 688.388 353.925 688.561 354.344 688.726C357.184 685.859 372.146 681.739 377.042 679.697C411.573 665.293 442.676 641.125 462.715 609.311C486.604 571.388 489.232 536.658 479.603 493.944C473.889 473.332 464.191 454.771 455.486 435.356Q450.625 424.58 446.549 413.482Q442.474 402.384 439.206 391.022C428.386 352.237 430.235 316.479 450.534 280.763C471.436 243.984 509.262 218.78 548.231 204.531C557.284 201.221 566.623 198.724 575.904 196.147C581.231 195.827 587.248 193.823 592.57 192.807C602.76 190.859 612.781 189.792 623.154 189.509L623.462 190.687C621.838 192.299 611.772 192.663 608.811 193.095C596.67 194.865 584.36 197.287 572.53 200.55C537.028 210.343 503.58 226.344 477.696 253.028C470.854 260.081 462.429 268.299 458.132 277.168C436.195 311.845 431.589 344.002 440.554 383.724Q442.176 390.638 444.175 397.453Q446.173 404.269 448.542 410.965Q450.91 417.661 453.641 424.217Q456.371 430.774 459.456 437.171C465.527 450.076 472.397 462.837 477.326 476.229C482.648 490.688 485.575 505.465 487.672 520.683C489.561 534.392 490.103 549.647 486.697 563.169C483.737 573.61 481.251 584.019 476.844 593.996C461.469 628.813 431.079 657.465 398.243 675.858C389.218 680.912 378.956 685.774 369.181 689.212C365.349 690.56 361.34 691.348 357.506 692.683C363.366 697.498 369.925 702.974 376.673 706.543C377.906 707.195 386.328 710.228 386.729 710.789C387.843 712.349 385.987 713.357 389.302 716.406C394.248 719.87 437.879 750.1 438.899 751.474L439.356 751.71C449.822 757.24 474.592 776.425 485.403 773.472C497.332 777.744 511.887 778.48 524.475 779.088C529.587 774.624 534.366 769.712 539.211 764.959C559.978 744.586 576.947 723.355 589.567 696.984C594.808 686.031 599.672 674.836 603.342 663.251Q604.376 659.872 605.311 656.465Q606.244 653.058 607.077 649.624Q607.91 646.191 608.641 642.735Q609.371 639.277 610 635.801Q610.629 632.324 611.153 628.83Q611.679 625.337 612.1 621.828Q612.522 618.321 612.84 614.802Q613.157 611.283 613.37 607.757Q613.584 604.23 613.693 600.699Q613.801 597.167 613.806 593.634Q613.81 590.101 613.71 586.57Q613.61 583.037 613.404 579.511Q613.2 575.984 612.891 572.464Q612.582 568.945 612.168 565.436Q611.756 561.927 611.238 558.431Q610.722 554.937 610.102 551.458C605.868 528.775 598.669 507.11 591.005 485.407C588.896 476.972 585.211 468.762 582.938 460.288C574.628 429.329 572.103 395.642 579.188 364.193C589.352 319.08 620.117 282.674 658.674 258.501C673.797 250.61 691.685 239.669 709.096 239.145L710.024 240.302L709.728 240.957C698.892 244.802 689.521 247.25 678.857 252.309C672.206 255.464 661.606 261.188 655.52 265.289C636.405 278.17 608.852 304.322 599.148 325.27C599.04 325.503 598.937 325.737 598.832 325.97C581.615 353.345 575.072 392.745 579.082 424.68C580.556 445.902 587.025 465.687 594.209 485.547C596.017 486.696 606.062 516.617 607.157 520.455C608.524 525.245 609.103 531.644 611.322 535.982C612.655 537.368 612.887 540.346 613.391 542.279C618.616 562.291 619.749 583.338 619.323 603.925C618.891 624.829 613.492 657.121 606.786 676.617C604.803 682.384 601.857 687.952 599.263 693.476C591.718 709.536 584.213 724.743 573.362 738.944C565.391 749.376 556.279 758.429 546.814 767.484C543.664 770.496 540.528 774.002 537.139 776.711L537.685 778.262C537.531 778.438 537.379 778.617 537.224 778.792C535.138 781.139 529.694 783.859 529.517 787.077C530.474 787.705 531.418 787.676 532.53 787.776C529.861 787.866 527.202 787.56 524.545 787.333C489.774 783.909 466.951 774.353 438.462 753.76C433.411 751.487 428.014 746.846 423.455 743.635C415.381 737.947 407.154 732.413 399.247 726.494C394.06 724.229 385.964 717.522 381.095 714.097C370.963 706.972 360.619 700.157 350.582 692.896C345.32 689.728 340.271 685.939 335.205 682.445L307.359 663.259Q261.419 632.287 216.196 600.279L161.93 563.212C150.736 555.615 138.656 548.242 128.421 539.392C119.289 531.496 112.254 522.595 107.404 511.497C97.7207 489.34 96.966 465.338 105.764 442.806C105.93 443.3 106.234 443.766 106.263 444.287C106.41 446.983 104.487 451.866 103.887 454.596C103.089 458.229 102.524 462.008 102.283 465.725Q102.083 468.836 102.152 471.952Q102.221 475.069 102.558 478.168Q102.895 481.267 103.498 484.325Q104.101 487.384 104.965 490.379C109.489 500.208 113.793 509.789 120.776 518.19C124.036 522.112 128.135 525.279 131.104 529.437C140.015 537.599 150.63 543.781 160.602 550.516L203.025 579.288L263.54 620.378C268.545 623.752 273.314 627.456 278.39 630.729C280.046 631.797 281.998 633.395 284.043 633.399C289.392 633.41 319.627 611.39 325.431 606.624C331.38 601.739 337.191 596.473 342.468 590.87C370.469 561.141 391.379 521.786 395.459 480.718C396.814 467.074 395.94 453.882 395.535 440.236Z"/>
	<path fill="#171617" transform="scale(0.0302439 0.0302734)" d="M104.965 490.379C109.489 500.208 113.793 509.789 120.776 518.19C124.036 522.112 128.135 525.279 131.104 529.437C130.597 529.137 130.473 529.081 129.946 528.664C121.617 522.075 110.025 508.255 106.388 498.217C105.453 495.638 105.197 493.092 104.965 490.379Z"/>
	<path fill="#343333" transform="scale(0.0302439 0.0302734)" d="M594.209 485.547C596.017 486.696 606.062 516.617 607.157 520.455C608.524 525.245 609.103 531.644 611.322 535.982C612.655 537.368 612.887 540.346 613.391 542.279C618.616 562.291 619.749 583.338 619.323 603.925C618.891 624.829 613.492 657.121 606.786 676.617C604.803 682.384 601.857 687.952 599.263 693.476C591.718 709.536 584.213 724.743 573.362 738.944C565.391 749.376 556.279 758.429 546.814 767.484C543.664 770.496 540.528 774.002 537.139 776.711L537.685 778.262C537.531 778.438 537.379 778.617 537.224 778.792C535.138 781.139 529.694 783.859 529.517 787.077C530.474 787.705 531.418 787.676 532.53 787.776C529.861 787.866 527.202 787.56 524.545 787.333C527.642 783.327 531.734 779.82 535.329 776.242C552.586 758.167 569.65 740.512 582.989 719.207C588.656 710.156 593.05 700.434 597.279 690.653C619.27 639.795 621.672 588.618 609.174 534.947Q605.313 519.051 600.066 503.557C598.151 497.808 595.608 491.848 594.295 485.955C594.264 485.818 594.237 485.682 594.209 485.547Z"/>
	<path fill="#3F3F41" transform="scale(0.0302439 0.0302734)" d="M397.584 440.049C396.341 422.346 390.257 404.375 385.917 387.229C374.718 342.988 372.906 297.862 389.686 254.705C392.732 246.872 396.112 238.599 400.213 231.259C410.24 213.313 435.354 180.582 454.305 172.255C446.479 179.429 438.696 186.813 431.804 194.904Q430.533 196.386 429.293 197.893Q428.052 199.401 426.843 200.933Q425.634 202.466 424.457 204.023Q423.28 205.58 422.135 207.161Q420.991 208.743 419.879 210.347Q418.768 211.952 417.69 213.58Q416.61 215.207 415.566 216.856Q414.522 218.505 413.512 220.176Q412.502 221.847 411.527 223.537Q410.552 225.228 409.612 226.939Q408.672 228.65 407.767 230.38Q406.863 232.11 405.994 233.858Q405.126 235.606 404.293 237.372Q403.462 239.138 402.666 240.92Q401.871 242.703 401.112 244.502Q400.354 246.301 399.633 248.115Q398.912 249.929 398.229 251.758Q397.545 253.586 396.899 255.428Q396.255 257.27 395.647 259.126Q395.039 260.981 394.471 262.849Q393.902 264.717 393.373 266.595Q392.842 268.473 392.352 270.363Q391.861 272.252 391.409 274.152Q390.957 276.051 390.545 277.958Q390.133 279.866 389.76 281.783Q389.387 283.699 389.054 285.622Q388.72 287.546 388.427 289.476Q388.134 291.406 387.88 293.341Q387.627 295.277 387.414 297.217Q387.201 299.158 387.029 301.102Q386.855 303.047 386.722 304.994Q386.589 306.942 386.497 308.892C385.481 333.068 389.134 356.404 394.976 379.806C398.241 392.877 402.138 405.984 404.754 419.189Q408.169 437.057 408.949 455.232C408.846 464.095 408.653 472.96 407.575 481.768C402.338 524.525 381.864 563.182 351.193 593.173C341.301 602.846 329.882 613.702 317.783 620.501C321.477 614.852 328.464 610.463 333.637 606.104Q339.525 601.041 345.165 595.703C350.327 590.796 362.598 574.535 366.655 568.388Q368.628 565.46 370.489 562.461Q372.351 559.462 374.1 556.395Q375.849 553.329 377.482 550.199Q379.115 547.069 380.629 543.881Q382.145 540.692 383.539 537.449Q384.935 534.207 386.207 530.914Q387.48 527.62 388.628 524.283Q389.777 520.945 390.8 517.565Q391.823 514.187 392.72 510.773Q393.616 507.358 394.385 503.913Q395.153 500.467 395.792 496.995Q396.431 493.523 396.94 490.031Q397.449 486.537 397.827 483.027Q398.204 479.517 398.452 475.996Q398.698 472.473 398.813 468.946Q398.928 465.418 398.911 461.887C398.882 454.73 399.052 447.068 397.584 440.049Z"/>
	<defs>
		<linearGradient id="gradient_3" gradientUnits="userSpaceOnUse" x1="384.81201" y1="685.75" x2="383.23499" y2="491.60699">
			<stop offset="0" stop-color="#9254B1"/>
			<stop offset="1" stop-color="#CC82F5"/>
		</linearGradient>
	</defs>
	<path fill="url(#gradient_3)" transform="scale(0.0302439 0.0302734)" d="M408.949 455.232C409.048 455.507 409.155 455.78 409.247 456.059C412.662 466.366 404.948 502.411 401.556 513.631C400.886 515.845 397.755 523.429 398.312 525.259C400.069 524.558 401.274 522.812 402.322 521.298C404.995 517.434 410.251 517.484 412.381 515.497C412.905 515.009 413.324 513.354 413.557 512.663C414.709 512.27 415.303 512.418 416.446 512.663C417.634 512.916 418.333 513.129 419.446 512.467C420.517 511.832 421.723 510.708 422.026 509.479C422.247 508.577 422.175 507.423 422.183 506.491C422.947 504.936 423.8 504.511 425.217 503.673L426.012 503.198C426.186 503.096 426.362 502.998 426.537 502.898L426.885 501.272C428.018 500.72 428.193 501.364 428.745 501.127C429.473 500.816 431.147 498.841 431.795 498.224C434.262 498.564 435.706 498.506 438.11 497.86C441.991 496.819 444.095 497.495 447.528 494.79C451.023 492.036 455.639 491.149 460.109 491.926C462.909 492.413 464.756 496.07 467.54 496.798C468.236 496.12 469.604 494.338 470.552 494.31C473.142 494.234 476.648 497.532 478.905 495.162C479.189 494.864 479.423 494.319 479.603 493.944C489.232 536.658 486.604 571.388 462.715 609.311C442.676 641.125 411.573 665.293 377.042 679.697C372.146 681.739 357.184 685.859 354.344 688.726C353.925 688.561 353.512 688.388 353.091 688.232C339.071 683.034 323.192 669.208 310.815 660.502C306.462 657.439 301.658 654.981 297.359 651.906C294.566 649.908 292.17 647.33 289.35 645.389C287.761 644.294 284.632 643.433 283.562 641.952C283.129 641.353 283.375 640.677 283.43 639.988C287.196 637.411 292.029 635.572 296.097 633.39Q307.175 627.34 317.783 620.501C329.882 613.702 341.301 602.846 351.193 593.173C381.864 563.182 402.338 524.525 407.575 481.768C408.653 472.96 408.846 464.095 408.949 455.232Z"/>
	<defs>
		<linearGradient id="gradient_4" gradientUnits="userSpaceOnUse" x1="569.26202" y1="337.315" x2="386.02899" y2="333.13101">
			<stop offset="0" stop-color="#9451BA"/>
			<stop offset="1" stop-color="#E59AFF"/>
		</linearGradient>
	</defs>
	<path fill="url(#gradient_4)" transform="scale(0.0302439 0.0302734)" d="M482.38 152.862C482.532 152.837 482.684 152.815 482.835 152.787C488.245 151.797 492.802 145.508 495.572 145.268C497.197 145.127 519.46 154.273 521.935 155.445C524.969 156.881 527.927 158.659 530.705 160.54C541.943 168.15 565.201 193.827 575.904 196.147C566.623 198.724 557.284 201.221 548.231 204.531C509.262 218.78 471.436 243.984 450.534 280.763C430.235 316.479 428.386 352.237 439.206 391.022Q442.474 402.384 446.549 413.482Q450.625 424.58 455.486 435.356C464.191 454.771 473.889 473.332 479.603 493.944C479.423 494.319 479.189 494.864 478.905 495.162C476.648 497.532 473.142 494.234 470.552 494.31C469.604 494.338 468.236 496.12 467.54 496.798C464.756 496.07 462.909 492.413 460.109 491.926C455.639 491.149 451.023 492.036 447.528 494.79C444.095 497.495 441.991 496.819 438.11 497.86C435.706 498.506 434.262 498.564 431.795 498.224C431.147 498.841 429.473 500.816 428.745 501.127C428.193 501.364 428.018 500.72 426.885 501.272L426.537 502.898C426.362 502.998 426.186 503.096 426.012 503.198L425.217 503.673C423.8 504.511 422.947 504.936 422.183 506.491C422.175 507.423 422.247 508.577 422.026 509.479C421.723 510.708 420.517 511.832 419.446 512.467C418.333 513.129 417.634 512.916 416.446 512.663C415.303 512.418 414.709 512.27 413.557 512.663C413.324 513.354 412.905 515.009 412.381 515.497C410.251 517.484 404.995 517.434 402.322 521.298C401.274 522.812 400.069 524.558 398.312 525.259C397.755 523.429 400.886 515.845 401.556 513.631C404.948 502.411 412.662 466.366 409.247 456.059C409.155 455.78 409.048 455.507 408.949 455.232Q408.169 437.057 404.754 419.189C402.138 405.984 398.241 392.877 394.976 379.806C389.134 356.404 385.481 333.068 386.497 308.892Q386.589 306.942 386.722 304.994Q386.855 303.047 387.029 301.102Q387.201 299.158 387.414 297.217Q387.627 295.277 387.88 293.341Q388.134 291.406 388.427 289.476Q388.72 287.546 389.054 285.622Q389.387 283.699 389.76 281.783Q390.133 279.866 390.545 277.958Q390.957 276.051 391.409 274.152Q391.861 272.252 392.352 270.363Q392.843 268.473 393.373 266.595Q393.902 264.717 394.471 262.849Q395.04 260.981 395.647 259.126Q396.255 257.27 396.899 255.428Q397.545 253.586 398.229 251.758Q398.912 249.929 399.633 248.115Q400.354 246.301 401.112 244.502Q401.871 242.703 402.666 240.92Q403.462 239.138 404.293 237.372Q405.126 235.606 405.994 233.858Q406.863 232.11 407.768 230.38Q408.672 228.65 409.612 226.939Q410.552 225.228 411.527 223.537Q412.502 221.847 413.512 220.176Q414.522 218.505 415.566 216.856Q416.61 215.207 417.69 213.58Q418.768 211.952 419.879 210.347Q420.991 208.743 422.135 207.161Q423.28 205.58 424.457 204.023Q425.634 202.466 426.843 200.933Q428.052 199.401 429.293 197.893Q430.533 196.386 431.804 194.904C438.696 186.813 446.479 179.429 454.305 172.255C463.003 165.3 472.268 157.632 482.38 152.862Z"/>
	<path fill="#343333" transform="scale(0.0302439 0.0302734)" d="M623.467 188.777C631.531 193.474 639.541 198.321 647.729 202.796L688.444 226.284C695.647 230.439 702.891 235.21 710.367 238.809L709.096 239.145C691.685 239.669 673.797 250.61 658.674 258.501C620.117 282.674 589.352 319.08 579.188 364.193C572.103 395.642 574.628 429.329 582.938 460.288C585.211 468.762 588.896 476.972 591.005 485.407C598.669 507.11 605.868 528.775 610.102 551.458Q610.722 554.937 611.238 558.431Q611.756 561.927 612.168 565.436Q612.582 568.945 612.891 572.464Q613.2 575.984 613.404 579.511Q613.61 583.037 613.71 586.57Q613.81 590.101 613.806 593.634Q613.801 597.167 613.693 600.699Q613.584 604.23 613.37 607.757Q613.157 611.283 612.84 614.802Q612.522 618.321 612.1 621.828Q611.679 625.337 611.153 628.83Q610.629 632.324 610 635.801Q609.371 639.277 608.641 642.735Q607.91 646.191 607.077 649.624Q606.244 653.058 605.311 656.465Q604.376 659.872 603.342 663.251C599.672 674.836 594.808 686.031 589.567 696.984C576.947 723.355 559.978 744.586 539.211 764.959C534.366 769.712 529.587 774.624 524.475 779.088C511.887 778.48 497.332 777.744 485.403 773.472C474.592 776.425 449.822 757.24 439.356 751.71L438.899 751.474C437.879 750.1 394.248 719.87 389.302 716.406C385.987 713.357 387.843 712.349 386.729 710.789C386.328 710.228 377.906 707.195 376.673 706.543C369.925 702.974 363.366 697.498 357.506 692.683C361.34 691.348 365.349 690.56 369.181 689.212C378.956 685.774 389.218 680.912 398.243 675.858C431.079 657.465 461.469 628.813 476.844 593.996C481.251 584.019 483.737 573.61 486.697 563.169C490.103 549.647 489.561 534.392 487.672 520.683C485.575 505.465 482.648 490.688 477.326 476.229C472.397 462.837 465.527 450.076 459.456 437.171Q456.371 430.774 453.641 424.217Q450.91 417.661 448.542 410.965Q446.173 404.269 444.175 397.453Q442.176 390.638 440.554 383.724C431.589 344.002 436.195 311.845 458.132 277.168C462.429 268.299 470.854 260.081 477.696 253.028C503.58 226.344 537.028 210.343 572.53 200.55C584.36 197.287 596.67 194.865 608.811 193.095C611.772 192.663 621.838 192.299 623.462 190.687L623.154 189.509L623.467 188.777Z"/>
	<path fill="#505051" transform="scale(0.0302439 0.0302734)" d="M458.132 277.168L458.522 277.859C457.45 279.792 455.05 282.546 454.901 284.688L455.78 285.699C455.83 285.566 455.877 285.432 455.928 285.3C456.582 283.602 457.489 282.236 458.528 280.752L458.794 280.848C452.899 294.058 447.248 306.415 443.908 320.628C437.61 347.43 443.866 380.445 453.604 405.858C461.077 425.361 470.679 443.913 478.819 463.115C493.435 497.595 497.656 530.122 489.82 566.97C489.259 565.793 489.914 564.119 490.248 562.865C491.066 559.808 493.53 546.379 492.275 544.047C492.193 543.894 492.07 543.765 491.989 543.612C491.64 542.954 491.905 523.356 491.78 521.193C491.604 518.154 490.729 515.437 489.993 512.508C489.826 514.16 489.738 515.422 490.259 517.02C491.573 521.049 490.351 525.707 491.098 529.886C491.302 531.031 489.702 553.282 489.436 555.183Q488.798 559.74 487.143 564.033C486.98 563.753 486.762 563.486 486.697 563.169C490.103 549.647 489.561 534.392 487.672 520.683C485.575 505.465 482.648 490.688 477.326 476.229C472.397 462.837 465.527 450.076 459.456 437.171Q456.371 430.774 453.641 424.217Q450.91 417.661 448.542 410.965Q446.173 404.269 444.175 397.453Q442.176 390.638 440.554 383.724C431.589 344.002 436.195 311.845 458.132 277.168Z"/>
	<path fill="#505051" transform="scale(0.0302439 0.0302734)" d="M517.843 628.242L516.917 627.912C516.455 626.453 518.681 623.999 519.522 622.68C537.406 594.634 548.317 562.682 547.952 529.169C547.69 505.143 541.695 485.607 533.306 463.373C530.298 455.4 527.332 447.365 523.737 439.633C510.832 411.885 495.871 385.732 493.966 354.415C491.931 320.945 504.391 289.662 526.565 264.843C532.382 258.33 556.688 235.975 564.912 235.499C535.55 256.151 509.156 284.491 502.897 321.163C501.669 328.348 501.938 335.545 500.977 342.677C501.419 353.052 502.982 362.865 505.297 372.971C511.107 392.199 520.089 409.361 528.525 427.48C537.263 446.251 547.489 469.383 552.216 489.552C554.678 500.055 555.812 510.536 557.122 521.216C556.758 527.467 557.379 533.756 556.947 540C556.145 551.614 551.146 579.163 545.212 588.639L544.55 588.56C542.222 593.441 540.126 598.37 537.47 603.093C538.083 600.458 541.763 595.153 541.265 592.883C539.507 595.771 538.279 598.893 536.668 601.857C534.542 605.767 529.093 613.982 526.184 617.131C523.559 620.955 520.476 624.436 517.843 628.242Z"/>
	<path fill="#171617" transform="scale(0.0302439 0.0302734)" d="M504.629 382.487C504.2 381.3 503.835 380.122 503.52 378.9C501.297 370.252 496.411 350.43 500.977 342.677C501.419 353.052 502.982 362.865 505.297 372.971C504.116 375.43 504.66 379.701 504.629 382.487Z"/>
	<defs>
		<linearGradient id="gradient_5" gradientUnits="userSpaceOnUse" x1="470.38501" y1="471.23499" x2="572.41302" y2="507.40302">
			<stop offset="0" stop-color="black"/>
			<stop offset="1" stop-color="#323433"/>
		</linearGradient>
	</defs>
	<path fill="url(#gradient_5)" transform="scale(0.0302439 0.0302734)" d="M505.297 372.971C511.107 392.199 520.089 409.361 528.525 427.48C537.263 446.251 547.489 469.383 552.216 489.552C554.678 500.055 555.812 510.536 557.122 521.216C556.758 527.467 557.379 533.756 556.947 540C556.145 551.614 551.146 579.163 545.212 588.639L544.55 588.56C542.222 593.441 540.126 598.37 537.47 603.093C538.083 600.458 541.763 595.153 541.265 592.883C539.507 595.771 538.279 598.893 536.668 601.857C534.542 605.767 529.093 613.982 526.184 617.131C531.366 604.747 538.02 593.333 542.485 580.562C546.588 568.827 548.927 556.949 550.338 544.624C555.055 503.45 544.016 471.066 527.528 433.973C519.932 416.883 509.858 400.449 504.629 382.487C504.66 379.701 504.116 375.43 505.297 372.971Z"/>
	<defs>
		<linearGradient id="gradient_6" gradientUnits="userSpaceOnUse" x1="658.82703" y1="371.49301" x2="501.88501" y2="374.009">
			<stop offset="0" stop-color="#954FB8"/>
			<stop offset="1" stop-color="#DC93FF"/>
		</linearGradient>
	</defs>
	<path fill="url(#gradient_6)" transform="scale(0.0302439 0.0302734)" d="M647.729 202.796L688.444 226.284C695.647 230.439 702.891 235.21 710.367 238.809L709.096 239.145C691.685 239.669 673.797 250.61 658.674 258.501C620.117 282.674 589.352 319.08 579.188 364.193C572.103 395.642 574.628 429.329 582.938 460.288C585.211 468.762 588.896 476.972 591.005 485.407L590.461 486.004C589.954 486.568 589.536 487.137 589.104 487.758C586.877 490.961 583.487 493.407 581.442 496.73C580.424 498.387 579.981 501.47 578.612 502.713C577.323 503.883 575.022 504.422 573.973 505.828C571.787 508.758 570.26 513.076 568.285 516.298C566.606 519.038 563.639 522.066 562.418 524.854C561.007 528.077 561.039 531.593 559.24 534.702C558.435 536.094 558.219 537.85 557.883 539.41C557.731 536.016 559.542 523.481 557.122 521.216C555.812 510.536 554.678 500.055 552.216 489.552C547.489 469.383 537.263 446.251 528.525 427.48C520.089 409.361 511.107 392.199 505.297 372.971C502.982 362.865 501.419 353.052 500.977 342.677C501.938 335.545 501.669 328.348 502.897 321.163C509.156 284.491 535.55 256.151 564.912 235.499C577.032 227.547 597.753 216.444 611.58 212.872C622.414 207.262 636.019 206.027 647.729 202.796Z"/>
	<path fill="#9359AE" transform="scale(0.0302439 0.0302734)" d="M647.729 202.796L688.444 226.284C695.647 230.439 702.891 235.21 710.367 238.809L709.096 239.145C691.685 239.669 673.797 250.61 658.674 258.501C655.04 255.337 654.694 248.91 652.351 244.728C647.445 235.968 635.224 226.44 633.419 216.495C632.721 212.655 635.459 209.5 637.569 206.621L636.951 206.268L636.769 206.524C634.203 206.9 631.593 207.269 629.094 207.975C624.639 209.233 616.537 213.121 612.288 212.927C612.052 212.916 611.816 212.89 611.58 212.872C622.414 207.262 636.019 206.027 647.729 202.796Z"/>
	<defs>
		<linearGradient id="gradient_7" gradientUnits="userSpaceOnUse" x1="548.815" y1="767.94598" x2="465.061" y2="529.14301">
			<stop offset="0" stop-color="#663A80"/>
			<stop offset="1" stop-color="#B66DDC"/>
		</linearGradient>
	</defs>
	<path fill="url(#gradient_7)" transform="scale(0.0302439 0.0302734)" d="M557.122 521.216C559.542 523.481 557.731 536.016 557.883 539.41C558.219 537.85 558.435 536.094 559.24 534.702C561.039 531.593 561.007 528.077 562.418 524.854C563.639 522.066 566.606 519.038 568.285 516.298C570.26 513.076 571.787 508.758 573.973 505.828C575.022 504.422 577.323 503.883 578.612 502.713C579.981 501.47 580.424 498.387 581.442 496.73C583.487 493.407 586.877 490.961 589.104 487.758C589.536 487.137 589.954 486.568 590.461 486.004L591.005 485.407C598.669 507.11 605.868 528.775 610.102 551.458Q610.722 554.937 611.238 558.431Q611.756 561.927 612.168 565.436Q612.582 568.945 612.891 572.464Q613.2 575.984 613.404 579.511Q613.61 583.037 613.71 586.57Q613.81 590.101 613.806 593.634Q613.801 597.167 613.693 600.699Q613.584 604.23 613.37 607.757Q613.157 611.283 612.84 614.802Q612.522 618.321 612.1 621.828Q611.679 625.337 611.153 628.83Q610.629 632.324 610 635.801Q609.371 639.277 608.641 642.735Q607.91 646.191 607.077 649.624Q606.244 653.058 605.311 656.465Q604.376 659.872 603.342 663.251C599.672 674.836 594.808 686.031 589.567 696.984C576.947 723.355 559.978 744.586 539.211 764.959C534.366 769.712 529.587 774.624 524.475 779.088C511.887 778.48 497.332 777.744 485.403 773.472C478.665 771.215 472.032 768.74 465.778 765.334C457.177 760.652 449.182 754.831 441.111 749.312C432.559 743.463 423.969 737.722 415.5 731.747C407.194 725.885 397.621 720.076 390.133 713.264C389.039 712.269 388.215 711.769 388.137 710.272C388.949 709.234 389.692 708.85 390.903 708.431C396.066 706.642 401.543 705.595 406.785 704.011Q422.746 699.118 438.114 692.597C453.073 686.226 474.849 675.148 486.624 664.055C486.821 663.869 487.014 663.68 487.21 663.492C487.227 662.559 487.635 661.56 488.201 660.827C490.212 658.227 493.351 655.807 495.788 653.542C502.477 647.327 514.22 636.491 517.843 628.242C520.476 624.436 523.559 620.955 526.184 617.131C529.093 613.982 534.542 605.767 536.668 601.857C538.279 598.893 539.507 595.771 541.265 592.883C541.763 595.153 538.083 600.458 537.47 603.093C540.126 598.37 542.222 593.441 544.55 588.56L545.212 588.639C551.146 579.163 556.145 551.614 556.947 540C557.379 533.756 556.758 527.467 557.122 521.216Z"/>
	<path transform="scale(0.0302439 0.0302734)" d="M526.184 617.131C529.093 613.982 534.542 605.767 536.668 601.857C538.279 598.893 539.507 595.771 541.265 592.883C541.763 595.153 538.083 600.458 537.47 603.093C540.126 598.37 542.222 593.441 544.55 588.56L545.212 588.639C534.439 617.3 512.067 645.628 487.21 663.492C487.227 662.559 487.635 661.56 488.201 660.827C490.212 658.227 493.351 655.807 495.788 653.542C502.477 647.327 514.22 636.491 517.843 628.242C520.476 624.436 523.559 620.955 526.184 617.131Z"/>
</svg>
